<svg width="3187" height="1000" viewBox="0 0 3187 1000" fill="none" xmlns="http://www.w3.org/2000/svg">
<rect width="3187" height="1000" fill="#E1F548"/>
<path d="M700 299.997V700.002H300V299.997H700ZM385.658 614.398H493.456V569.738L538.115 614.398H614.398V538.115L569.738 493.455H614.398V385.655H385.658V614.398Z" fill="black"/>
<path d="M924.897 699V684.426L946.151 678.961C963.761 674.71 966.797 668.03 966.797 645.562V354.083C966.797 331.614 963.761 324.935 946.151 320.684L924.897 315.219V300.645H1079.75C1180.55 300.645 1238.24 338.901 1238.24 409.95C1238.24 463.387 1200.59 500.43 1141.69 514.396L1181.16 582.408C1222.45 653.456 1244.31 670.459 1271.03 680.175L1282.57 684.426V699H1237.02C1196.94 699 1181.16 688.677 1159.9 651.635L1094.93 537.472C1088.85 526.541 1085.21 522.898 1072.46 522.898C1059.71 522.898 1040.88 521.683 1022.66 520.469V645.562C1022.66 668.03 1025.7 674.71 1042.1 678.961L1062.74 684.426V699H924.897ZM1076.71 498.608C1136.83 498.608 1177.51 467.638 1177.51 409.95C1177.51 346.796 1131.97 325.542 1064.56 325.542H1022.66V495.572C1042.1 498.001 1062.14 498.608 1076.71 498.608ZM1501.94 705.072C1387.78 705.072 1301.55 627.345 1301.55 501.644C1301.55 377.765 1387.78 294.572 1501.94 294.572C1615.5 294.572 1701.73 372.3 1701.73 498.001C1701.73 622.487 1615.5 705.072 1501.94 705.072ZM1503.15 680.175C1583.31 680.175 1640.39 612.163 1640.39 502.859C1640.39 386.874 1580.28 319.469 1500.73 319.469C1420.57 319.469 1362.88 388.089 1362.88 497.393C1362.88 613.378 1423 680.175 1503.15 680.175ZM1949.44 705.072C1844.39 705.072 1758.76 635.846 1758.76 507.717C1758.76 374.729 1848.64 294.572 1959.16 294.572C2006.52 294.572 2047.21 303.681 2080 317.04L2086.07 403.877H2070.89L2054.49 372.907C2033.85 334.043 2008.95 319.469 1958.55 319.469C1886.89 319.469 1818.27 374.729 1818.27 499.822C1818.27 607.913 1884.46 669.245 1966.44 669.245C2022.31 669.245 2057.53 647.991 2090.93 607.305L2103.07 617.021C2076.96 669.852 2021.1 705.072 1949.44 705.072ZM2143.55 699V684.426L2164.8 678.961C2182.41 674.71 2185.45 668.03 2185.45 645.562V354.083C2185.45 331.614 2182.41 324.935 2164.8 320.684L2143.55 315.219V300.645H2283.21V315.219L2261.96 320.684C2244.35 324.935 2241.31 331.614 2241.31 354.083V484.034H2260.14C2272.28 484.034 2284.43 482.212 2298.39 467.031L2396.77 360.762C2419.24 337.08 2420.45 323.113 2385.23 315.219V300.645H2503.64V315.219C2472.07 326.149 2460.53 337.08 2416.81 380.802L2319.04 479.783L2421.06 612.163C2454.46 655.278 2466.6 667.423 2498.18 679.568L2510.93 684.426V699H2466.6C2424.7 699 2409.52 688.07 2385.84 657.1L2280.78 519.254C2274.71 510.753 2269.85 508.324 2259.53 508.324H2241.31V645.562C2241.31 668.03 2244.35 674.71 2261.96 678.961L2283.21 684.426V699H2143.55ZM2623.61 699V684.426L2647.29 678.961C2666.72 674.71 2669.76 668.03 2669.76 645.562V539.901L2561.06 351.654C2548.92 331.007 2544.06 324.935 2528.88 319.469L2516.73 315.219V300.645H2654.58V315.219L2635.75 319.469C2619.36 323.113 2611.46 334.651 2626.04 360.762L2712.88 513.789L2790 372.3C2806.39 342.545 2804.57 324.935 2782.1 319.469L2766.31 315.826V300.645H2878.65V315.826C2850.11 327.364 2842.22 338.901 2814.89 385.66L2725.63 537.472V645.562C2725.63 668.03 2729.27 674.71 2748.1 678.961L2771.78 684.426V699H2623.61Z" fill="black"/>
</svg>
