<svg width="340" height="114" viewBox="0 0 340 114" fill="none" xmlns="http://www.w3.org/2000/svg">
<path d="M32.0358 85.49V83.4144L35.0626 82.6361C37.5706 82.0307 38.003 81.0794 38.003 77.8796V36.3681C38.003 33.1683 37.5706 32.2169 35.0626 31.6116L32.0358 30.8332V28.7577H54.0887C68.4448 28.7577 76.6606 34.206 76.6606 44.3245C76.6606 51.9349 71.2987 57.2103 62.9099 59.1994L68.5313 68.8854C74.412 79.0038 77.5254 81.4253 81.3306 82.809L82.9738 83.4144V85.49H76.4876C70.7798 85.49 68.5313 84.0198 65.5044 78.7444L56.2508 62.4857C55.386 60.929 54.8671 60.4102 53.0509 60.4102C51.2348 60.4102 48.5539 60.2372 45.9594 60.0642V77.8796C45.9594 81.0794 46.3918 82.0307 48.7268 82.6361L51.6672 83.4144V85.49H32.0358ZM53.6563 56.9509C62.2181 56.9509 68.0124 52.5403 68.0124 44.3245C68.0124 35.3303 61.5262 32.3034 51.9267 32.3034H45.9594V56.5185C48.7268 56.8644 51.5807 56.9509 53.6563 56.9509ZM114.216 86.3548C97.9575 86.3548 85.677 75.2851 85.677 57.3833C85.677 39.7409 97.9575 27.8928 114.216 27.8928C130.388 27.8928 142.669 38.9626 142.669 56.8644C142.669 74.5932 130.388 86.3548 114.216 86.3548ZM114.389 82.809C125.805 82.809 133.934 73.123 133.934 57.5562C133.934 41.0381 125.372 31.4386 114.043 31.4386C102.628 31.4386 94.4117 41.2111 94.4117 56.7779C94.4117 73.296 102.973 82.809 114.389 82.809ZM177.947 86.3548C162.986 86.3548 150.792 76.4958 150.792 58.2481C150.792 39.3085 163.591 27.8928 179.331 27.8928C186.077 27.8928 191.871 29.1901 196.541 31.0927L197.406 43.4596H195.244L192.909 39.049C189.969 33.5142 186.423 31.4386 179.245 31.4386C169.04 31.4386 159.267 39.3085 159.267 57.1238C159.267 72.5177 168.694 81.2524 180.369 81.2524C188.325 81.2524 193.341 78.2255 198.098 72.4312L199.827 73.8149C196.109 81.3389 188.152 86.3548 177.947 86.3548ZM205.591 85.49V83.4144L208.618 82.6361C211.126 82.0307 211.559 81.0794 211.559 77.8796V36.3681C211.559 33.1683 211.126 32.2169 208.618 31.6116L205.591 30.8332V28.7577H225.482V30.8332L222.455 31.6116C219.947 32.2169 219.515 33.1683 219.515 36.3681V54.8753H222.196C223.926 54.8753 225.655 54.6158 227.644 52.4538L241.654 37.3194C244.854 33.9466 245.027 31.9575 240.011 30.8332V28.7577H256.875V30.8332C252.378 32.3899 250.735 33.9466 244.508 40.1733L230.585 54.2699L245.114 73.123C249.87 79.2633 251.6 80.9929 256.097 82.7226L257.913 83.4144V85.49H251.6C245.633 85.49 243.471 83.9333 240.098 79.5227L225.136 59.8913C224.272 58.6805 223.58 58.3346 222.109 58.3346H219.515V77.8796C219.515 81.0794 219.947 82.0307 222.455 82.6361L225.482 83.4144V85.49H205.591ZM273.96 85.49V83.4144L277.333 82.6361C280.101 82.0307 280.533 81.0794 280.533 77.8796V62.8317L265.053 36.0222C263.323 33.0818 262.631 32.2169 260.469 31.4386L258.739 30.8332V28.7577H278.371V30.8332L275.69 31.4386C273.355 31.9575 272.231 33.6007 274.306 37.3194L286.673 59.1129L297.656 38.9626C299.991 34.7249 299.732 32.2169 296.532 31.4386L294.284 30.9197V28.7577H310.283V30.9197C306.218 32.5629 305.094 34.206 301.202 40.8652L288.489 62.4857V77.8796C288.489 81.0794 289.008 82.0307 291.689 82.6361L295.062 83.4144V85.49H273.96Z" fill="black"/>
</svg>
