<svg width="340" height="200" viewBox="0 0 340 200" fill="none" xmlns="http://www.w3.org/2000/svg">
<rect width="339.98" height="199.43" fill="#E1F548"/>
<path d="M198.473 28.49V85.4568H141.507V28.49H198.473ZM153.706 73.2654H169.057V66.905L175.418 73.2654H186.282V62.4021L179.922 56.0417H186.282V40.6892H153.706V73.2654Z" fill="black"/>
<path d="M32.0358 170.94V168.864L35.0626 168.086C37.5706 167.481 38.003 166.529 38.003 163.33V121.818C38.003 118.618 37.5706 117.667 35.0626 117.062L32.0358 116.283V114.208H54.0887C68.4448 114.208 76.6606 119.656 76.6606 129.775C76.6606 137.385 71.2987 142.66 62.9099 144.649L68.5313 154.335C74.412 164.454 77.5254 166.875 81.3306 168.259L82.9738 168.864V170.94H76.4876C70.7798 170.94 68.5313 169.47 65.5044 164.194L56.2508 147.936C55.386 146.379 54.8671 145.86 53.0509 145.86C51.2348 145.86 48.5539 145.687 45.9594 145.514V163.33C45.9594 166.529 46.3918 167.481 48.7268 168.086L51.6672 168.864V170.94H32.0358ZM53.6563 142.401C62.2181 142.401 68.0124 137.99 68.0124 129.775C68.0124 120.78 61.5262 117.753 51.9267 117.753H45.9594V141.969C48.7268 142.314 51.5807 142.401 53.6563 142.401ZM114.216 171.805C97.9575 171.805 85.677 160.735 85.677 142.833C85.677 125.191 97.9575 113.343 114.216 113.343C130.388 113.343 142.669 124.413 142.669 142.314C142.669 160.043 130.388 171.805 114.216 171.805ZM114.389 168.259C125.805 168.259 133.934 158.573 133.934 143.006C133.934 126.488 125.372 116.889 114.043 116.889C102.628 116.889 94.4117 126.661 94.4117 142.228C94.4117 158.746 102.973 168.259 114.389 168.259ZM177.947 171.805C162.986 171.805 150.792 161.946 150.792 143.698C150.792 124.759 163.591 113.343 179.331 113.343C186.077 113.343 191.871 114.64 196.541 116.543L197.406 128.91H195.244L192.909 124.499C189.969 118.964 186.423 116.889 179.245 116.889C169.04 116.889 159.267 124.759 159.267 142.574C159.267 157.968 168.694 166.702 180.369 166.702C188.325 166.702 193.341 163.676 198.098 157.881L199.827 159.265C196.109 166.789 188.152 171.805 177.947 171.805ZM205.591 170.94V168.864L208.618 168.086C211.126 167.481 211.559 166.529 211.559 163.33V121.818C211.559 118.618 211.126 117.667 208.618 117.062L205.591 116.283V114.208H225.482V116.283L222.455 117.062C219.947 117.667 219.515 118.618 219.515 121.818V140.325H222.196C223.926 140.325 225.655 140.066 227.644 137.904L241.654 122.769C244.854 119.397 245.027 117.408 240.011 116.283V114.208H256.875V116.283C252.378 117.84 250.735 119.397 244.508 125.623L230.585 139.72L245.114 158.573C249.87 164.713 251.6 166.443 256.097 168.173L257.913 168.864V170.94H251.6C245.633 170.94 243.471 169.383 240.098 164.973L225.136 145.341C224.272 144.131 223.58 143.785 222.109 143.785H219.515V163.33C219.515 166.529 219.947 167.481 222.455 168.086L225.482 168.864V170.94H205.591ZM273.96 170.94V168.864L277.333 168.086C280.101 167.481 280.533 166.529 280.533 163.33V148.282L265.053 121.472C263.323 118.532 262.631 117.667 260.469 116.889L258.739 116.283V114.208H278.371V116.283L275.69 116.889C273.355 117.408 272.231 119.051 274.306 122.769L286.673 144.563L297.656 124.413C299.991 120.175 299.732 117.667 296.532 116.889L294.284 116.37V114.208H310.283V116.37C306.218 118.013 305.094 119.656 301.202 126.315L288.489 147.936V163.33C288.489 166.529 289.008 167.481 291.689 168.086L295.062 168.864V170.94H273.96Z" fill="black"/>
</svg>
