<svg width="48" height="48" viewBox="0 0 48 48" fill="none" xmlns="http://www.w3.org/2000/svg">
<path d="M0 24C0 10.7452 10.7452 0 24 0C37.2548 0 48 10.7452 48 24C48 37.2548 37.2548 48 24 48C10.7452 48 0 37.2548 0 24Z" fill="#E1F548"/>
<path d="M21.5215 38.5684C21.5215 37.707 21.082 37.2324 20.291 36.9863C16.9863 35.9316 15 33.0664 15 28.6367V27.4414H19.7637V28.5312C19.7637 31.3965 21.3809 33.2773 23.8594 33.2773C26.1621 33.2773 27.709 31.8008 27.7441 29.5332C27.7793 27.3711 26.4609 26.1934 24.2988 26.1406L22.7168 26.1055C17.9883 26 15.0703 23.3457 15.0703 18.6523C15.0703 14.8027 16.9863 12.2539 20.291 11.3574C21.082 11.1465 21.5215 10.6016 21.5215 9.77539V8H26.0918V9.95117C26.0918 10.8477 26.5312 11.2871 27.3574 11.5684C30.416 12.6406 32.1387 15.2773 32.1387 19.0918V20.2344H27.3926V19.1973C27.3926 16.7891 25.8105 15.207 23.3848 15.207C21.2754 15.207 19.8691 16.4902 19.8691 18.5117C19.8691 20.3926 21.082 21.5527 23.4375 21.6055L25.0195 21.6406C29.6602 21.7461 32.5078 24.4531 32.5078 29.2344C32.5078 33.2422 30.627 35.9316 27.3574 36.9863C26.5664 37.2324 26.0918 37.6719 26.0918 38.5684V40.3965H21.5215V38.5684Z" fill="black"/>
</svg>
