<svg width="2587" height="998" viewBox="0 0 2587 998" fill="none" xmlns="http://www.w3.org/2000/svg">
<rect width="2587" height="998" fill="#E1F548"/>
<path d="M324.897 698V683.426L346.151 677.961C363.761 673.71 366.797 667.03 366.797 644.562V353.083C366.797 330.614 363.761 323.935 346.151 319.684L324.897 314.219V299.645H479.746C580.549 299.645 638.238 337.901 638.238 408.95C638.238 462.387 600.588 499.43 541.685 513.396L581.156 581.408C622.449 652.456 644.31 669.459 671.029 679.175L682.567 683.426V698H637.023C596.945 698 581.156 687.677 559.903 650.635L494.927 536.472C488.854 525.541 485.211 521.898 472.459 521.898C459.706 521.898 440.882 520.683 422.664 519.469V644.562C422.664 667.03 425.701 673.71 442.096 677.961L462.743 683.426V698H324.897ZM476.709 497.608C536.827 497.608 577.513 466.638 577.513 408.95C577.513 345.796 531.969 324.542 464.564 324.542H422.664V494.572C442.096 497.001 462.135 497.608 476.709 497.608ZM901.94 704.072C787.777 704.072 701.548 626.345 701.548 500.644C701.548 376.765 787.777 293.572 901.94 293.572C1015.5 293.572 1101.73 371.3 1101.73 497.001C1101.73 621.487 1015.5 704.072 901.94 704.072ZM903.155 679.175C983.312 679.175 1040.39 611.163 1040.39 501.859C1040.39 385.874 980.275 318.469 900.726 318.469C820.569 318.469 762.88 387.089 762.88 496.393C762.88 612.378 822.998 679.175 903.155 679.175ZM1349.44 704.072C1244.39 704.072 1158.76 634.846 1158.76 506.717C1158.76 373.729 1248.64 293.572 1359.16 293.572C1406.52 293.572 1447.21 302.681 1480 316.04L1486.07 402.877H1470.89L1454.49 371.907C1433.85 333.043 1408.95 318.469 1358.55 318.469C1286.89 318.469 1218.27 373.729 1218.27 498.822C1218.27 606.913 1284.46 668.245 1366.44 668.245C1422.31 668.245 1457.53 646.991 1490.93 606.305L1503.07 616.021C1476.96 668.852 1421.1 704.072 1349.44 704.072ZM1543.55 698V683.426L1564.8 677.961C1582.41 673.71 1585.45 667.03 1585.45 644.562V353.083C1585.45 330.614 1582.41 323.935 1564.8 319.684L1543.55 314.219V299.645H1683.21V314.219L1661.96 319.684C1644.35 323.935 1641.31 330.614 1641.31 353.083V483.034H1660.14C1672.28 483.034 1684.43 481.212 1698.39 466.031L1796.77 359.762C1819.24 336.08 1820.45 322.113 1785.23 314.219V299.645H1903.64V314.219C1872.07 325.149 1860.53 336.08 1816.81 379.802L1719.04 478.783L1821.06 611.163C1854.46 654.278 1866.6 666.423 1898.18 678.568L1910.93 683.426V698H1866.6C1824.7 698 1809.52 687.07 1785.84 656.1L1680.78 518.254C1674.71 509.753 1669.85 507.324 1659.53 507.324H1641.31V644.562C1641.31 667.03 1644.35 673.71 1661.96 677.961L1683.21 683.426V698H1543.55ZM2023.61 698V683.426L2047.29 677.961C2066.72 673.71 2069.76 667.03 2069.76 644.562V538.901L1961.06 350.654C1948.92 330.007 1944.06 323.935 1928.88 318.469L1916.73 314.219V299.645H2054.58V314.219L2035.75 318.469C2019.36 322.113 2011.46 333.651 2026.04 359.762L2112.88 512.789L2190 371.3C2206.39 341.545 2204.57 323.935 2182.1 318.469L2166.31 314.826V299.645H2278.65V314.826C2250.11 326.364 2242.22 337.901 2214.89 384.66L2125.63 536.472V644.562C2125.63 667.03 2129.27 673.71 2148.1 677.961L2171.78 683.426V698H2023.61Z" fill="black"/>
</svg>
