<svg width="2587" height="1598" viewBox="0 0 2587 1598" fill="none" xmlns="http://www.w3.org/2000/svg">
<rect width="2587" height="1598" fill="black"/>
<path d="M1493.5 300.001V700.005H1093.5V300.001H1493.5ZM1179.16 614.401H1286.96V569.741L1331.62 614.401H1407.9V538.118L1363.24 493.458H1407.9V385.658H1179.16V614.401Z" fill="#FAFAFA"/>
<path d="M324.897 1298V1283.43L346.151 1277.97C363.761 1273.71 366.797 1267.04 366.797 1244.57V953.088C366.797 930.619 363.761 923.94 346.151 919.689L324.897 914.224V899.65H479.746C580.549 899.65 638.238 937.906 638.238 1008.95C638.238 1062.39 600.588 1099.43 541.685 1113.4L581.156 1181.41C622.449 1252.46 644.31 1269.46 671.029 1279.18L682.567 1283.43V1298H637.023C596.945 1298 581.156 1287.68 559.903 1250.64L494.927 1136.48C488.854 1125.55 485.211 1121.9 472.459 1121.9C459.706 1121.9 440.882 1120.69 422.664 1119.47V1244.57C422.664 1267.04 425.701 1273.71 442.096 1277.97L462.743 1283.43V1298H324.897ZM476.709 1097.61C536.827 1097.61 577.513 1066.64 577.513 1008.95C577.513 945.801 531.969 924.547 464.564 924.547H422.664V1094.58C442.096 1097.01 462.135 1097.61 476.709 1097.61ZM901.94 1304.08C787.777 1304.08 701.548 1226.35 701.548 1100.65C701.548 976.77 787.777 893.577 901.94 893.577C1015.5 893.577 1101.73 971.305 1101.73 1097.01C1101.73 1221.49 1015.5 1304.08 901.94 1304.08ZM903.155 1279.18C983.312 1279.18 1040.39 1211.17 1040.39 1101.86C1040.39 985.879 980.275 918.474 900.726 918.474C820.569 918.474 762.88 987.093 762.88 1096.4C762.88 1212.38 822.998 1279.18 903.155 1279.18ZM1349.44 1304.08C1244.39 1304.08 1158.76 1234.85 1158.76 1106.72C1158.76 973.734 1248.64 893.577 1359.16 893.577C1406.52 893.577 1447.21 902.686 1480 916.045L1486.07 1002.88H1470.89L1454.49 971.912C1433.85 933.048 1408.95 918.474 1358.55 918.474C1286.89 918.474 1218.27 973.734 1218.27 1098.83C1218.27 1206.92 1284.46 1268.25 1366.44 1268.25C1422.31 1268.25 1457.53 1247 1490.93 1206.31L1503.07 1216.03C1476.96 1268.86 1421.1 1304.08 1349.44 1304.08ZM1543.55 1298V1283.43L1564.8 1277.97C1582.41 1273.71 1585.45 1267.04 1585.45 1244.57V953.088C1585.45 930.619 1582.41 923.94 1564.8 919.689L1543.55 914.224V899.65H1683.21V914.224L1661.96 919.689C1644.35 923.94 1641.31 930.619 1641.31 953.088V1083.04H1660.14C1672.28 1083.04 1684.43 1081.22 1698.39 1066.04L1796.77 959.767C1819.24 936.085 1820.45 922.118 1785.23 914.224V899.65H1903.64V914.224C1872.07 925.154 1860.53 936.085 1816.81 979.806L1719.04 1078.79L1821.06 1211.17C1854.46 1254.28 1866.6 1266.43 1898.18 1278.57L1910.93 1283.43V1298H1866.6C1824.7 1298 1809.52 1287.07 1785.84 1256.1L1680.78 1118.26C1674.71 1109.76 1669.85 1107.33 1659.53 1107.33H1641.31V1244.57C1641.31 1267.04 1644.35 1273.71 1661.96 1277.97L1683.21 1283.43V1298H1543.55ZM2023.61 1298V1283.43L2047.29 1277.97C2066.72 1273.71 2069.76 1267.04 2069.76 1244.57V1138.91L1961.06 950.659C1948.92 930.012 1944.06 923.94 1928.88 918.474L1916.73 914.224V899.65H2054.58V914.224L2035.75 918.474C2019.36 922.118 2011.46 933.656 2026.04 959.767L2112.88 1112.79L2190 971.305C2206.39 941.55 2204.57 923.94 2182.1 918.474L2166.31 914.831V899.65H2278.65V914.831C2250.11 926.369 2242.22 937.906 2214.89 984.664L2125.63 1136.48V1244.57C2125.63 1267.04 2129.27 1273.71 2148.1 1277.97L2171.78 1283.43V1298H2023.61Z" fill="#FAFAFA"/>
</svg>
