<svg width="426" height="114" viewBox="0 0 426 114" fill="none" xmlns="http://www.w3.org/2000/svg">
<path d="M85.4568 28.5061V85.4739H28.49V28.5061H85.4568ZM40.6892 73.2825H56.0417V66.9221L62.4011 73.2825H73.2654V62.4182L66.905 56.0579H73.2654V40.7053H40.6892V73.2825Z" fill="black"/>
<path d="M117.486 85.49V83.4144L120.513 82.6361C123.021 82.0307 123.453 81.0794 123.453 77.8796V36.3681C123.453 33.1683 123.021 32.2169 120.513 31.6116L117.486 30.8332V28.7577H139.539C153.895 28.7577 162.111 34.206 162.111 44.3245C162.111 51.9349 156.749 57.2103 148.36 59.1994L153.981 68.8854C159.862 79.0038 162.975 81.4253 166.781 82.809L168.424 83.4144V85.49H161.938C156.23 85.49 153.981 84.0198 150.954 78.7444L141.701 62.4857C140.836 60.929 140.317 60.4102 138.501 60.4102C136.685 60.4102 134.004 60.2372 131.409 60.0642V77.8796C131.409 81.0794 131.842 82.0307 134.177 82.6361L137.117 83.4144V85.49H117.486ZM139.106 56.9509C147.668 56.9509 153.462 52.5403 153.462 44.3245C153.462 35.3303 146.976 32.3034 137.377 32.3034H131.409V56.5185C134.177 56.8644 137.031 56.9509 139.106 56.9509ZM199.666 86.3548C183.408 86.3548 171.127 75.2851 171.127 57.3833C171.127 39.7409 183.408 27.8928 199.666 27.8928C215.838 27.8928 228.119 38.9626 228.119 56.8644C228.119 74.5932 215.838 86.3548 199.666 86.3548ZM199.839 82.809C211.255 82.809 219.384 73.123 219.384 57.5562C219.384 41.0381 210.822 31.4386 199.493 31.4386C188.078 31.4386 179.862 41.2111 179.862 56.7779C179.862 73.296 188.424 82.809 199.839 82.809ZM263.398 86.3548C248.436 86.3548 236.242 76.4958 236.242 58.2481C236.242 39.3085 249.042 27.8928 264.781 27.8928C271.527 27.8928 277.321 29.1901 281.991 31.0927L282.856 43.4596H280.694L278.359 39.049C275.419 33.5142 271.873 31.4386 264.695 31.4386C254.49 31.4386 244.717 39.3085 244.717 57.1238C244.717 72.5177 254.144 81.2524 265.819 81.2524C273.775 81.2524 278.791 78.2255 283.548 72.4312L285.278 73.8149C281.559 81.3389 273.602 86.3548 263.398 86.3548ZM291.041 85.49V83.4144L294.068 82.6361C296.576 82.0307 297.009 81.0794 297.009 77.8796V36.3681C297.009 33.1683 296.576 32.2169 294.068 31.6116L291.041 30.8332V28.7577H310.932V30.8332L307.905 31.6116C305.398 32.2169 304.965 33.1683 304.965 36.3681V54.8753H307.646C309.376 54.8753 311.105 54.6158 313.094 52.4538L327.105 37.3194C330.304 33.9466 330.477 31.9575 325.461 30.8332V28.7577H342.325V30.8332C337.828 32.3899 336.185 33.9466 329.958 40.1733L316.035 54.2699L330.564 73.123C335.32 79.2633 337.05 80.9929 341.547 82.7226L343.363 83.4144V85.49H337.05C331.083 85.49 328.921 83.9333 325.548 79.5227L310.586 59.8913C309.722 58.6805 309.03 58.3346 307.56 58.3346H304.965V77.8796C304.965 81.0794 305.398 82.0307 307.905 82.6361L310.932 83.4144V85.49H291.041ZM359.41 85.49V83.4144L362.783 82.6361C365.551 82.0307 365.983 81.0794 365.983 77.8796V62.8317L350.503 36.0222C348.773 33.0818 348.081 32.2169 345.919 31.4386L344.19 30.8332V28.7577H363.821V30.8332L361.14 31.4386C358.805 31.9575 357.681 33.6007 359.756 37.3194L372.123 59.1129L383.107 38.9626C385.442 34.7249 385.182 32.2169 381.982 31.4386L379.734 30.9197V28.7577H395.733V30.9197C391.668 32.5629 390.544 34.206 386.652 40.8652L373.939 62.4857V77.8796C373.939 81.0794 374.458 82.0307 377.139 82.6361L380.512 83.4144V85.49H359.41Z" fill="black"/>
</svg>
