<svg width="426" height="114" viewBox="0 0 426 114" fill="none" xmlns="http://www.w3.org/2000/svg">
<path d="M85.4518 28.5061V85.4739H28.485V28.5061H85.4518ZM40.6842 73.2825H56.0367V66.9221L62.3961 73.2825H73.2604V62.4182L66.9 56.0579H73.2604V40.7053H40.6842V73.2825Z" fill="white"/>
<path d="M117.481 85.49V83.4144L120.508 82.6361C123.016 82.0307 123.448 81.0794 123.448 77.8796V36.3681C123.448 33.1682 123.016 32.2169 120.508 31.6116L117.481 30.8332V28.7577H139.534C153.89 28.7577 162.106 34.206 162.106 44.3245C162.106 51.9349 156.744 57.2103 148.355 59.1994L153.976 68.8854C159.857 79.0038 162.971 81.4253 166.776 82.809L168.419 83.4144V85.49H161.933C156.225 85.49 153.976 84.0198 150.949 78.7444L141.696 62.4857C140.831 60.929 140.312 60.4101 138.496 60.4101C136.68 60.4101 133.999 60.2372 131.404 60.0642V77.8796C131.404 81.0794 131.837 82.0307 134.172 82.6361L137.112 83.4144V85.49H117.481ZM139.101 56.9509C147.663 56.9509 153.457 52.5403 153.457 44.3245C153.457 35.3303 146.971 32.3034 137.372 32.3034H131.404V56.5184C134.172 56.8644 137.026 56.9509 139.101 56.9509ZM199.661 86.3548C183.403 86.3548 171.122 75.2851 171.122 57.3833C171.122 39.7409 183.403 27.8928 199.661 27.8928C215.833 27.8928 228.114 38.9626 228.114 56.8644C228.114 74.5932 215.833 86.3548 199.661 86.3548ZM199.834 82.809C211.25 82.809 219.379 73.123 219.379 57.5562C219.379 41.0381 210.817 31.4386 199.488 31.4386C188.073 31.4386 179.857 41.2111 179.857 56.7779C179.857 73.296 188.419 82.809 199.834 82.809ZM263.393 86.3548C248.431 86.3548 236.237 76.4958 236.237 58.2481C236.237 39.3085 249.037 27.8928 264.776 27.8928C271.522 27.8928 277.316 29.1901 281.986 31.0927L282.851 43.4596H280.689L278.354 39.049C275.414 33.5142 271.868 31.4386 264.69 31.4386C254.485 31.4386 244.712 39.3085 244.712 57.1238C244.712 72.5177 254.139 81.2524 265.814 81.2524C273.77 81.2524 278.786 78.2255 283.543 72.4312L285.273 73.8149C281.554 81.3388 273.597 86.3548 263.393 86.3548ZM291.036 85.49V83.4144L294.063 82.6361C296.571 82.0307 297.004 81.0794 297.004 77.8796V36.3681C297.004 33.1682 296.571 32.2169 294.063 31.6116L291.036 30.8332V28.7577H310.927V30.8332L307.901 31.6116C305.393 32.2169 304.96 33.1682 304.96 36.3681V54.8753H307.641C309.371 54.8753 311.1 54.6158 313.089 52.4538L327.1 37.3194C330.299 33.9466 330.472 31.9575 325.456 30.8332V28.7577H342.32V30.8332C337.823 32.3899 336.18 33.9466 329.953 40.1733L316.03 54.2699L330.559 73.123C335.315 79.2633 337.045 80.9929 341.542 82.7226L343.358 83.4144V85.49H337.045C331.078 85.49 328.916 83.9333 325.543 79.5227L310.581 59.8913C309.717 58.6805 309.025 58.3346 307.555 58.3346H304.96V77.8796C304.96 81.0794 305.393 82.0307 307.901 82.6361L310.927 83.4144V85.49H291.036ZM359.405 85.49V83.4144L362.778 82.6361C365.546 82.0307 365.978 81.0794 365.978 77.8796V62.8316L350.498 36.0222C348.768 33.0818 348.076 32.2169 345.914 31.4386L344.185 30.8332V28.7577H363.816V30.8332L361.135 31.4386C358.8 31.9575 357.676 33.6007 359.751 37.3194L372.118 59.1129L383.102 38.9626C385.437 34.7249 385.177 32.2169 381.977 31.4386L379.729 30.9197V28.7577H395.728V30.9197C391.663 32.5629 390.539 34.206 386.647 40.8652L373.934 62.4857V77.8796C373.934 81.0794 374.453 82.0307 377.134 82.6361L380.507 83.4144V85.49H359.405Z" fill="white"/>
</svg>
